{
  "accessors": [
    {
      "bufferView": 2,
      "componentType": 5126,
      "count": 65532,
      "max": [
        10.795591354370117,
        3.0269949436187744,
        13.841160774230957
      ],
      "min": [
        -10.11746883392334,
        -2.87522292137146,
        1.6346850395202637
      ],
      "type": "VEC3"
    },
    {
      "bufferView": 2,
      "byteOffset": 786384,
      "componentType": 5126,
      "count": 65532,
      "max": [
        0.9998292326927185,
        0.9999809265136719,
        1.0
      ],
      "min": [
        -1.0,
        -1.0,
        -0.9999926090240479
      ],
      "type": "VEC3"
    },
    {
      "bufferView": 1,
      "componentType": 5126,
      "count": 65532,
      "max": [
        0.9966109991073608,
        0.9496880173683167
      ],
      "min": [
        0.0014169999631121755,
        0.00023999999393709004
      ],
      "type": "VEC2"
    },
    {
      "bufferView": 0,
      "componentType": 5125,
      "count": 365007,
      "type": "SCALAR"
    },
    {
      "bufferView": 2,
      "byteOffset": 1572768,
      "componentType": 5126,
      "count": 65532,
      "max": [
        11.115592002868652,
        3.0238640308380127,
        14.017784118652344
      ],
      "min": [
        -9.804408073425293,
        -2.872400999069214,
        -7.562211990356445
      ],
      "type": "VEC3"
    },
    {
      "bufferView": 2,
      "byteOffset": 2359152,
      "componentType": 5126,
      "count": 65532,
      "max": [
        1.0,
        1.0,
        1.0
      ],
      "min": [
        -0.9996196627616882,
        -0.9999991655349731,
        -1.0
      ],
      "type": "VEC3"
    },
    {
      "bufferView": 1,
      "byteOffset": 524256,
      "componentType": 5126,
      "count": 65532,
      "max": [
        0.9972760081291199,
        0.9495660066604614
      ],
      "min": [
        0.0007089999853633344,
        0.004157000221312046
      ],
      "type": "VEC2"
    },
    {
      "bufferView": 0,
      "byteOffset": 1460028,
      "componentType": 5125,
      "count": 369363,
      "type": "SCALAR"
    },
    {
      "bufferView": 2,
      "byteOffset": 3145536,
      "componentType": 5126,
      "count": 65532,
      "max": [
        11.373592376708984,
        3.1069679260253906,
        14.01784610748291
      ],
      "min": [
        -11.658543586730957,
        -2.8697609901428223,
        -10.63508415222168
      ],
      "type": "VEC3"
    },
    {
      "bufferView": 2,
      "byteOffset": 3931920,
      "componentType": 5126,
      "count": 65532,
      "max": [
        1.0,
        1.0,
        1.0
      ],
      "min": [
        -0.9973562359809875,
        -1.0,
        -0.9994233250617981
      ],
      "type": "VEC3"
    },
    {
      "bufferView": 1,
      "byteOffset": 1048512,
      "componentType": 5126,
      "count": 65532,
      "max": [
        0.9236980080604553,
        0.7810369729995728
      ],
      "min": [
        0.33446699380874634,
        0.0029819998890161514
      ],
      "type": "VEC2"
    },
    {
      "bufferView": 0,
      "byteOffset": 2937480,
      "componentType": 5125,
      "count": 373719,
      "type": "SCALAR"
    },
    {
      "bufferView": 2,
      "byteOffset": 4718304,
      "componentType": 5126,
      "count": 65532,
      "max": [
        11.439030647277832,
        1.8853310346603394,
        12.474684715270996
      ],
      "min": [
        -11.795248985290527,
        -1.789720058441162,
        -5.753291130065918
      ],
      "type": "VEC3"
    },
    {
      "bufferView": 2,
      "byteOffset": 5504688,
      "componentType": 5126,
      "count": 65532,
      "max": [
        1.0,
        0.9999838471412659,
        0.9999426007270813
      ],
      "min": [
        -1.0,
        -1.0,
        -0.9924721121788025
      ],
      "type": "VEC3"
    },
    {
      "bufferView": 1,
      "byteOffset": 1572768,
      "componentType": 5126,
      "count": 65532,
      "max": [
        0.6759639978408813,
        0.9348070025444031
      ],
      "min": [
        0.33659300208091736,
        0.30201101303100586
      ],
      "type": "VEC2"
    },
    {
      "bufferView": 0,
      "byteOffset": 4432356,
      "componentType": 5125,
      "count": 367521,
      "type": "SCALAR"
    },
    {
      "bufferView": 2,
      "byteOffset": 6291072,
      "componentType": 5126,
      "count": 65532,
      "max": [
        10.536459922790527,
        2.592890977859497,
        11.834684371948242
      ],
      "min": [
        -11.764408111572266,
        -2.5010130405426025,
        -10.843973159790039
      ],
      "type": "VEC3"
    },
    {
      "bufferView": 2,
      "byteOffset": 7077456,
      "componentType": 5126,
      "count": 65532,
      "max": [
        0.9838289618492126,
        0.9999995231628418,
        0.9999857544898987
      ],
      "min": [
        -1.0,
        -0.9999983310699463,
        -0.9999855160713196
      ],
      "type": "VEC3"
    },
    {
      "bufferView": 1,
      "byteOffset": 2097024,
      "componentType": 5126,
      "count": 65532,
      "max": [
        0.8252410292625427,
        0.9992910027503967
      ],
      "min": [
        0.137472003698349,
        0.47955700755119324
      ],
      "type": "VEC2"
    },
    {
      "bufferView": 0,
      "byteOffset": 5902440,
      "componentType": 5125,
      "count": 355323,
      "type": "SCALAR"
    },
    {
      "bufferView": 2,
      "byteOffset": 7863840,
      "componentType": 5126,
      "count": 65532,
      "max": [
        11.312886238098145,
        3.115365982055664,
        13.234683990478516
      ],
      "min": [
        -10.869847297668457,
        -2.3649849891662598,
        -12.013193130493164
      ],
      "type": "VEC3"
    },
    {
      "bufferView": 2,
      "byteOffset": 8650224,
      "componentType": 5126,
      "count": 65532,
      "max": [
        0.9999851584434509,
        0.9999948740005493,
        0.9999703764915466
      ],
      "min": [
        -1.0,
        -1.0,
        -0.9999924302101135
      ],
      "type": "VEC3"
    },
    {
      "bufferView": 1,
      "byteOffset": 2621280,
      "componentType": 5126,
      "count": 65532,
      "max": [
        0.7198799848556519,
        0.9992910027503967
      ],
      "min": [
        0.0007089999853633344,
        0.34609100222587585
      ],
      "type": "VEC2"
    },
    {
      "bufferView": 0,
      "byteOffset": 7323732,
      "componentType": 5125,
      "count": 320178,
      "type": "SCALAR"
    },
    {
      "bufferView": 2,
      "byteOffset": 9436608,
      "componentType": 5126,
      "count": 65532,
      "max": [
        9.958118438720703,
        3.107522964477539,
        14.064804077148438
      ],
      "min": [
        -11.73171329498291,
        -2.7669448852539063,
        -9.478684425354004
      ],
      "type": "VEC3"
    },
    {
      "bufferView": 2,
      "byteOffset": 10222992,
      "componentType": 5126,
      "count": 65532,
      "max": [
        0.999998152256012,
        0.9999933838844299,
        0.9999989867210388
      ],
      "min": [
        -0.9999959468841553,
        -0.9999999403953552,
        -0.9999897480010986
      ],
      "type": "VEC3"
    },
    {
      "bufferView": 1,
      "byteOffset": 3145536,
      "componentType": 5126,
      "count": 65532,
      "max": [
        0.9772149920463562,
        0.9992910027503967
      ],
      "min": [
        0.1970299929380417,
        0.07201699912548065
      ],
      "type": "VEC2"
    },
    {
      "bufferView": 0,
      "byteOffset": 8604444,
      "componentType": 5125,
      "count": 355098,
      "type": "SCALAR"
    },
    {
      "bufferView": 2,
      "byteOffset": 11009376,
      "componentType": 5126,
      "count": 35251,
      "max": [
        11.397796630859375,
        2.662848949432373,
        10.696992874145508
      ],
      "min": [
        -11.32747745513916,
        -1.489305019378662,
        -8.719061851501465
      ],
      "type": "VEC3"
    },
    {
      "bufferView": 2,
      "byteOffset": 11432388,
      "componentType": 5126,
      "count": 35251,
      "max": [
        0.9999982714653015,
        1.0,
        0.9999777674674988
      ],
      "min": [
        -0.9999324679374695,
        -0.9662453532218933,
        -0.9999999403953552
      ],
      "type": "VEC3"
    },
    {
      "bufferView": 1,
      "byteOffset": 3669792,
      "componentType": 5126,
      "count": 35251,
      "max": [
        0.6845849752426147,
        0.6308109760284424
      ],
      "min": [
        0.2295919954776764,
        0.07201699912548065
      ],
      "type": "VEC2"
    },
    {
      "bufferView": 0,
      "byteOffset": 10024836,
      "componentType": 5125,
      "count": 193149,
      "type": "SCALAR"
    }
  ],
  "asset": {
    "extras": {
      "author": "Laser Design (https://sketchfab.com/Laserdesign)",
      "license": "CC-BY-NC-4.0 (http://creativecommons.org/licenses/by-nc/4.0/)",
      "source": "https://sketchfab.com/3d-models/wedding-ring-3d-scan-e23e94396aa7461b9ea4d8697514bd7a",
      "title": "Wedding Ring 3D Scan"
    },
    "generator": "Sketchfab-12.66.0",
    "version": "2.0"
  },
  "bufferViews": [
    {
      "buffer": 0,
      "byteLength": 10797432,
      "name": "floatBufferViews",
      "target": 34963
    },
    {
      "buffer": 0,
      "byteLength": 3951800,
      "byteOffset": 10797432,
      "byteStride": 8,
      "name": "floatBufferViews",
      "target": 34962
    },
    {
      "buffer": 0,
      "byteLength": 11855400,
      "byteOffset": 14749232,
      "byteStride": 12,
      "name": "floatBufferViews",
      "target": 34962
    }
  ],
  "buffers": [
    {
      "byteLength": 26604632,
      "uri": "scene.bin"
    }
  ],
  "images": [
    {
      "uri": "textures/material_0_baseColor.jpeg"
    }
  ],
  "materials": [
    {
      "doubleSided": true,
      "name": "material_0",
      "pbrMetallicRoughness": {
        "baseColorTexture": {
          "index": 0
        },
        "metallicFactor": 0.7,
        "roughnessFactor": 0.09999999999999998
      }
    }
  ],
  "meshes": [
    {
      "name": "Object_0",
      "primitives": [
        {
          "attributes": {
            "NORMAL": 1,
            "POSITION": 0,
            "TEXCOORD_0": 2
          },
          "indices": 3,
          "material": 0,
          "mode": 4
        }
      ]
    },
    {
      "name": "Object_1",
      "primitives": [
        {
          "attributes": {
            "NORMAL": 5,
            "POSITION": 4,
            "TEXCOORD_0": 6
          },
          "indices": 7,
          "material": 0,
          "mode": 4
        }
      ]
    },
    {
      "name": "Object_2",
      "primitives": [
        {
          "attributes": {
            "NORMAL": 9,
            "POSITION": 8,
            "TEXCOORD_0": 10
          },
          "indices": 11,
          "material": 0,
          "mode": 4
        }
      ]
    },
    {
      "name": "Object_3",
      "primitives": [
        {
          "attributes": {
            "NORMAL": 13,
            "POSITION": 12,
            "TEXCOORD_0": 14
          },
          "indices": 15,
          "material": 0,
          "mode": 4
        }
      ]
    },
    {
      "name": "Object_4",
      "primitives": [
        {
          "attributes": {
            "NORMAL": 17,
            "POSITION": 16,
            "TEXCOORD_0": 18
          },
          "indices": 19,
          "material": 0,
          "mode": 4
        }
      ]
    },
    {
      "name": "Object_5",
      "primitives": [
        {
          "attributes": {
            "NORMAL": 21,
            "POSITION": 20,
            "TEXCOORD_0": 22
          },
          "indices": 23,
          "material": 0,
          "mode": 4
        }
      ]
    },
    {
      "name": "Object_6",
      "primitives": [
        {
          "attributes": {
            "NORMAL": 25,
            "POSITION": 24,
            "TEXCOORD_0": 26
          },
          "indices": 27,
          "material": 0,
          "mode": 4
        }
      ]
    },
    {
      "name": "Object_7",
      "primitives": [
        {
          "attributes": {
            "NORMAL": 29,
            "POSITION": 28,
            "TEXCOORD_0": 30
          },
          "indices": 31,
          "material": 0,
          "mode": 4
        }
      ]
    }
  ],
  "nodes": [
    {
      "children": [
        1
      ],
      "matrix": [
        -1.0,
        -6.290011496532519e-32,
        2.832769343193999e-16,
        0.0,
        2.832769343193999e-16,
        -2.220446049250313e-16,
        1.0,
        0.0,
        0.0,
        1.0,
        2.220446049250313e-16,
        0.0,
        -0.3560972213745117,
        5.3328029688828275e-17,
        -0.24016809463500977,
        1.0
      ],
      "name": "Sketchfab_model"
    },
    {
      "children": [
        2,
        3,
        4,
        5,
        6,
        7,
        8,
        9
      ],
      "name": "Ring Scan Artec Micro Color mm.obj.cleaner.materialmerger.gles"
    },
    {
      "mesh": 0,
      "name": "Object_2"
    },
    {
      "mesh": 1,
      "name": "Object_3"
    },
    {
      "mesh": 2,
      "name": "Object_4"
    },
    {
      "mesh": 3,
      "name": "Object_5"
    },
    {
      "mesh": 4,
      "name": "Object_6"
    },
    {
      "mesh": 5,
      "name": "Object_7"
    },
    {
      "mesh": 6,
      "name": "Object_8"
    },
    {
      "mesh": 7,
      "name": "Object_9"
    }
  ],
  "samplers": [
    {
      "magFilter": 9729,
      "minFilter": 9987,
      "wrapS": 10497,
      "wrapT": 10497
    }
  ],
  "scene": 0,
  "scenes": [
    {
      "name": "Sketchfab_Scene",
      "nodes": [
        0
      ]
    }
  ],
  "textures": [
    {
      "sampler": 0,
      "source": 0
    }
  ]
}
