<svg width="130.62072746730834" height="40.8" viewBox="0 0 212.62072746730834 64.8" class="css-1j8o68f"><defs id="SvgjsDefs1238"></defs><g id="SvgjsG1239" featurekey="nameLeftFeature-0" transform="matrix(1.0765550681346712,0,0,1.0765550681346712,-3.486286653293171,7.8947366529794625)" fill="#fff"><path d="M24.64 10.760000000000002 l11.24 27.72 c0.16 0.36 0.2 0.72 0.12 0.96 c-0.08 0.2 -0.24 0.6 -0.88 0.6 l-4.28 0 c-0.56 0 -0.96 -0.32 -1.16 -0.88 l-9.92 -24.76 l-0.04 -0.08 l-0.16 0 s-0.04 0.04 -0.08 0.12 l-5.12 12.96 l4.96 0 c0.52 0 0.96 0.32 1.16 0.8 l1.44 3.56 c0.12 0.4 0.08 0.84 -0.16 1.16 c-0.2 0.36 -0.6 0.56 -1.04 0.56 l-8.76 0 l-2.28 5.72 c-0.2 0.52 -0.6 0.84 -1.12 0.84 l-4.4 0 c-0.64 0 -0.84 -0.36 -0.88 -0.6 c-0.08 -0.24 -0.04 -0.6 0.08 -0.96 l11.16 -27.72 c0.56 -1.44 1.16 -2.4 1.76 -2.92 c0.16 -0.12 0.36 -0.28 0.6 -0.4 c0.8 -0.56 1.76 -0.84 2.76 -0.84 c2.2 0 4.12 1.48 4.76 3.56 z"></path></g><g id="SvgjsG1240" featurekey="inlineSymbolFeature-0" transform="matrix(0.7200648251719439,0,0,0.7200648251719439,51.14045278429302,-3.6493927981187273)" fill="#fff"><g xmlns="http://www.w3.org/2000/svg" transform="translate(0.000000,1283.000000) scale(0.100000,-0.100000)"><path d="M470.6,12778.6c-32.1-2.5-59.2-7.2-89.5-15.8c-10.4-2.9-16.8-5-16.8-5.6c0-2.2,40.8-126.2,41.8-127.3   c0.4-0.4,4.1,0.4,8.5,1.7c18,5.3,41.8,9.9,57.9,11.3c33.6,2.9,60.6,1.5,92.8-4.5c8.9-1.7,12.1-2,12.5-1.4c0.3,0.5,1.4,4.8,2.5,9.6   c1.1,4.8,4,17,6.5,27.1c2.4,10.1,5.4,22.5,6.7,27.6c4.6,19.1,6.8,28.5,8.6,36.2c1,4.4,2.9,12.1,4.1,17.3c1.2,5.2,2.4,10,2.6,10.7   c0.6,2-1.5,2.7-15.3,5.5c-19,3.8-37.2,6.3-58.5,7.9C523.4,12779.5,482.2,12779.5,470.6,12778.6z M518.3,12758.4l6.3-93h-24l-6.2,93   H518.3z M487.3,12665.6l-24-1.9c0,0-6,91.8-5.2,92c1,0.4,23.7,1.9,23.7,1.9L487.3,12665.6z M555.8,12755.1l6.3-94.5l-24.2,3.5   l-6.2,92.7L555.8,12755.1z M444.4,12753c0-0.8,6-90.9,5.8-91.1c-0.4-0.4-23.2-5-23.4-4.7c-0.2,0.2-6.3,92.4-6,92.7   C421.4,12750.6,444.4,12753.5,444.4,12753z M573.9,12697.6l-4.8,55.7l14.6-2.5L573.9,12697.6z M409.9,12710.7   c2.2-32.6,2.3-32.2-3.7-13.9c-10.9,32.8-15,46-14.6,46.4c0.4,0.5,13,3.8,14.7,3.8C407.3,12747.1,409.1,12722.7,409.9,12710.7z"></path><path d="M641.4,12756.3c-0.6-1.2-40.4-126.8-40-127.1c0.3-0.3,4.9-2.2,10.3-4.1c45-16.3,90.6-46.8,123.1-82.5   c4.1-4.5,7.8-8.3,8.1-8.5c0.7-0.2,100.5,85.4,101.1,85.9c1.8,1.5,0.4,3.4-12.6,17.3c-47.8,51.2-107.4,90.7-174.1,115.2   C642.9,12758,642.3,12758.1,641.4,12756.3z M668.1,12724.2c-1.9-1.9-18-12.4-18.3-12.1c-0.3,0.3,4.6,16.4,5.4,17.9   C655.3,12730.2,668.8,12724.9,668.1,12724.2z M693.2,12714c0,0-54.6-36.4-54.8-36.3c-0.1,0.1,6.7,21.5,6.7,21.5s32.7,21.7,33,21.7   S693.2,12714,693.2,12714z M714.6,12702.2c0-0.5-86.9-58.8-87.1-58.4c-0.4,0.5,6.4,20.5,7.3,21.4c1.6,1.6,65.3,44.3,66.2,44.4   C701.5,12709.6,714.6,12702.4,714.6,12702.2z M735.6,12689.5c-0.1-0.6-83.6-56.6-85-57c-0.4-0.1-15.5,6.8-15.5,6.8   s87.5,58.4,87.7,58.4C722.9,12697.6,735.6,12689.8,735.6,12689.5z M755.1,12675.9l-82.9-55.4l-13.7,7.5l84.5,56.8L755.1,12675.9z    M773.8,12661.7c-0.1-0.5-80.3-54.1-81.1-54.1c-0.3,0-12.7,8.2-12.7,8.2s81.6,54.8,82.3,54.8   C762.7,12670.6,773.8,12661.9,773.8,12661.7z M791,12646.7c0-0.3-79.2-53.5-79.2-53.5s-11,8.9-11,9.2c0,0.8,79.1,53.9,79.9,53.7   C781,12656.1,791,12647,791,12646.7z M807.5,12630.6c-0.2-0.1-78-52.2-78-52.2s-11,9.5-11,9.7c0,0.2,78.9,53.1,78.9,53.1   S807.6,12630.8,807.5,12630.6z M814.6,12624.1l-69.7-60.7l-9.5,9.5l78.5,51.8L814.6,12624.1z"></path><path d="M322.3,12741.7c-12.5-5.4-36.8-18.1-49.9-26c-31.9-19.4-56.6-38.6-83.7-65.3c-15.9-15.6-27-28-40.3-44.9   c-7.6-9.7-8.9-11.7-8-12.5c1.9-1.7,107.5-78.4,108-78.4c0.2,0,3,3.3,6.1,7.4c31.5,39.8,67.6,69.1,112.6,91.1   c8.5,4.1,15.5,7.6,15.6,7.7c0.6,0.5-48.5,119.7-49.2,121.3C332.3,12745.6,331.4,12745.6,322.3,12741.7z M328.9,12697.2   c-0.1-0.2-51.1-3.4-51.1-3.4s41.3,23.4,42.6,23C320.8,12716.7,329,12697.3,328.9,12697.2z M343.8,12661.2c-0.1-0.1-116-7.9-117.5-8   c-1.6-0.1-2.8,0-2.8,0.2c0,0.5,27.3,22.4,27.3,22.4l85.1,5C336,12680.7,344,12661.3,343.8,12661.2z M355.5,12631.5   c-0.4-0.2-15.6-8-15.6-8s-156.8-10.4-156.8-10.1s20.6,22.1,20.6,22.1l146.9,9.6C350.6,12645.1,355.8,12631.8,355.5,12631.5z    M280.2,12582.6c-1.3-0.2-75.8-5.2-77.6-5.4c-3.4-0.4-29.7,18.9-29.6,19.1c0.1,0.1,132.7,9,134.7,9.1l3.7,0.1   C311.3,12605.4,281.7,12582.8,280.2,12582.6z M244.6,12543.7l-25.6,18.5l44.4,2.6L244.6,12543.7z"></path><path d="M758.1,12514.4l6.6-9.8c28.2-42.4,45.7-90.1,51.4-140c0.6-5.6,1.3-10.2,1.4-10.4   c0.2-0.1,134.2,10.4,134.2,10.4s0,2.3-0.2,4.3c-1,10.1-3.5,28.9-4.9,36.9c-10.7,62.9-34.1,121.1-70.4,175.2   c-4.5,6.7-8.5,12.5-9.1,12.8C866.4,12594.5,758.1,12514.4,758.1,12514.4z M864.7,12557.5c-0.4-0.4-75.5-50.3-76.4-49.6   c-0.6,0.5-1,1.3-1,1.7c0.1,1,73.4,54.6,74.3,54.2C862,12563.8,865.3,12557.9,864.7,12557.5z M880.8,12531.8   c0-0.6-75.8-51.7-76.7-51.7c-0.8,0-6.4,12.2-5.8,12.8c0.3,0.3,76.1,50.9,76.1,50.9S880.8,12532.1,880.8,12531.8z M894.4,12503.3   c-1.3-1.2-77.4-51.8-77.6-51.5c-0.1,0.1-5.5,12.6-5.5,12.6s76.7,51.7,77.3,51.7C888.9,12516.1,894.7,12503.5,894.4,12503.3z    M906.3,12474.8c0-1.1-78.7-53.5-79.4-52.7c-0.4,0.3-4.3,12.9-4.3,12.9s78.3,52.5,78.6,52.5   C901.4,12487.6,906.3,12475.3,906.3,12474.8z M916,12444.6c0-0.9-79-54.2-80.9-54.7c-0.6-0.2-3.6,13.5-3.4,13.8   c0.1,0.7,79.2,53.7,80,53.8C912,12457.6,916,12445.1,916,12444.6z M923.4,12411.5c-0.1-0.2-47.5-31.7-47.5-31.7s-26.7-1.8-26.9-1.7   c-0.4,0.4,70.1,47.9,71.1,47.9C920.6,12426.1,923.6,12411.7,923.4,12411.5z M927.5,12388.9c0.3-2.3,0.3-4.4,0.1-4.7   c-0.5-0.5-15.3-1.8-16.3-1.5c-0.8,0.3,13.5,10.2,14.8,10.3C926.6,12393.1,927.2,12391.2,927.5,12388.9z"></path><path d="M121.6,12566c-0.7,0.2-2.3-1.7-4.9-5.8c-14.5-23.6-29.9-57.5-40.1-88.7c-6.7-20.4-10.1-33.3-13.9-52.5   c-5.4-27.2-7-41.7-8.7-79.3l-0.4-9.6H190v5.9c0,24,4.9,59,12.7,85.3c5.5,18.5,16.1,44.1,26.6,63.5c3.1,5.8,5.4,10.9,5.3,11.4   C234.4,12496.6,123.4,12565.3,121.6,12566z M76.3,12350.7l1.2,8.9l15.4-8.9H76.3z M113.3,12351.8c0,0-36.6,17-36.2,18.3   c0.1,0.9,1.6,13.2,2.2,13c0.4-0.2,67.1-30.9,67.1-30.9L113.3,12351.8z M166.9,12351.8c-0.7,0-87.1,39.7-87.1,40.3   c0,1.3,1.5,11.5,1.9,12.8c0.3,1.1,87.8-39.2,87.8-39.2S168.1,12351.8,166.9,12351.8z M170.2,12373.9c-0.2-0.1-86.3,39.5-86.6,39.8   c-0.2,0.3,1.8,10.7,2.5,13c0.2,0.5,0.5,0.9,0.7,0.9c0.3,0,85.8-39.3,85.8-39.3S170.4,12374.1,170.2,12373.9z M173.9,12396.4   c-0.2-0.2-85.1,39.3-85.1,39.8c0,0.9,3.1,13.2,3.4,13.2c0.1,0,84.1-38.6,84.4-38.9C176.9,12410,174.5,12397,173.9,12396.4z    M179.1,12417.9c0,0-83.4,38.4-84,39c-1,1,3.2,13.7,4.3,13.2c0.5-0.2,79.3-36.5,80.8-37.1c1.8-0.8,2.7-1.6,2.5-2.2   C182.6,12430.3,179.1,12417.9,179.1,12417.9z M184.9,12439.6c-0.4,0-83.2,37.9-83.3,38c-0.4,0.3,4.6,13,5.2,13   c0.3,0,83.4-38.5,83.2-38.8C187.4,12444,185.6,12439.6,184.9,12439.6z M192.1,12460.2c-0.7,0.2-81.9,37.8-82.1,38.3   c-0.4,0.8,4.6,12.4,5.3,12.4c0.2,0,82.7-38,82.9-38.3S193.1,12459.9,192.1,12460.2z M202.2,12479.4c0,0-83.2,38.4-83.4,38.6   c-0.5,0.5,5.4,12.3,6.1,12.3c0.4,0,12.8-5.6,27.6-12.4c21.3-9.8,29.7-14.2,40.4-20.7c7.3-4.6,13.4-8.7,13.4-9.2   C206.2,12487.6,202.2,12479.4,202.2,12479.4z"></path><path d="M818.4,12327.7c-0.2-1.3-0.4-4.6-0.4-7.4c0-9.4-2.4-32-4.9-47c-5.5-32.9-20.3-73.1-37.1-101.6   c-2.5-4.3-4.3-8-3.9-8.3c1.4-1.3,113.6-70.5,114.4-70.5c0.7,0,13.2,22.7,20.2,37.1c10.1,20.5,16.5,35.9,23.2,56.3   c14.4,43.3,21.1,81.8,23.2,132.6l0.4,11H818.9L818.4,12327.7z M930.6,12300.4c0,0-91.6-0.1-91.9,0.2c-0.4,0.4,0.4,8.4,0.4,8.4h91.9   L930.6,12300.4z M928,12272.9c0-1.3-93.7-1.4-93.7-1.4l0.8,6.6c16.6,0.4,93.9,1.7,93.9,1.7S928,12273.6,928,12272.9z    M924.2,12249.4c0-0.1-1.6-7.9-1.6-7.9h-94.9c0,0,2.2,7.4,2.2,7.7C829.9,12249.6,924.2,12249.7,924.2,12249.4z M917.5,12220   c0-0.4-2.3-8.4-2.3-8.4h-96.6l3.1,9C821.6,12220.6,917.5,12220.3,917.5,12220z M905.8,12181.9c0,0-99.8-0.2-99.8,0.4   c0,0.4,3.3,7.5,3.3,7.5h99.2L905.8,12181.9z M893.8,12152.7l-63.2-0.4c0,0-12.5,7.8-12.7,8c-0.1,0.1,79.3,0.3,79.3,0.3   L893.8,12152.7z"></path><path d="M70.8,12296.3c-16.8-1.2-15.8-0.8-15.3-4.7c2.6-23.5,3.7-30.8,6.8-47.8c6.3-33.5,15.6-63.3,29.6-95.2   c6.1-13.8,16.5-34.7,23.1-45.8c5-8.6,20.5-32.5,23.9-36.7l1.4-1.8l5.1,3.6c6.9,4.9,102.3,74.7,103.1,75.3c0.3,0.3-2.6,5.4-6.4,11.4   c-17.1,26.4-28.7,50.3-37.4,77.6c-6.3,19.6-11.4,42.8-13.3,60.7c-1.1,10.9-1.5,12-3.7,12.2   C186.5,12305.1,77.6,12296.8,70.8,12296.3z M172.5,12273.1c0,0-58.8-119.3-59.1-119.3c-0.6,0-12.5,29-12.5,29l47.9,97.7   c0,0,15.5,1.4,17.8,1.5l4.3,0.1L172.5,12273.1z M95,12200.7c0,0-9.2,33.5-9.2,35c0,0.7,4.4,10.4,9.9,21.5l9.8,20.3l28.2,1.7   L95,12200.7z M81.7,12259c-0.3-0.3-2.8,16.2-2.8,16.2l11.3,0.8C90.2,12276.1,81.9,12259.2,81.7,12259z M186.8,12217l-18.4-37.4   c-10.2-20.6-21.8-44.3-25.9-52.8c-8.8-18-6.9-18-15.9-0.5l-5.8,11.4c0,0,55.8,113.7,55.9,113.6   C176.9,12251.1,186.8,12217,186.8,12217z M206.3,12171.7c0-0.3-24.9-50.9-24.9-50.9s-36-26.2-36.9-25c-0.5,0.8-1,1.7-1,2.2   c0,0.5,43.2,88.6,45.5,93.5l4.2,8.9C193.1,12200.5,206.3,12172.1,206.3,12171.7z M219.6,12148.8c-1-1.1-14.4-10.7-14.6-10.4   c-0.3,0.3,9.1,19.1,9.6,19.1C214.8,12157.5,219.8,12149.1,219.6,12148.8z"></path><path d="M751.5,12135.6c-30.5-38.6-68.9-69.5-113-90.8c-13.8-6.7-14.4-7.1-14.1-8.9c0.7-2.9,49.1-121.1,50-122   c1.2-1.2,8.4,1.7,27.5,11.3c22.6,11.4,30.3,15.8,47.5,27.1c42.1,27.6,79.6,62.4,111.5,103.5l6.4,8.3l-109.1,79.9L751.5,12135.6z    M779.8,12102v-100.3c0,0-8.3-6.9-8.5-6.9c-0.2,0-0.3,113.3-0.1,113.3S779.8,12102,779.8,12102z M749.8,11978.4l-7.9-5.3   l-0.4,118.6c0,0,7.9,8.9,7.9,8.9C749.7,12100.5,749.8,11978.4,749.8,11978.4z M810.5,12030.3l-9-8.9v64.9l9-6.9V12030.3z    M718.8,11959c-0.2-0.5-7.9-4.7-7.9-4.7l0.1,110.6l7.8,6.2C718.7,12071.1,719,11959.5,718.8,11959z M689.9,11943.2   c0,0-4-1.7-4.1-1.6c-0.1,0.2-1.3,2.8-2.5,5.9l-2.3,5.6v90.3c0,0,8.1,5.3,8.4,5.3C689.7,12048.8,689.9,11943.2,689.9,11943.2z    M658.9,12007.7c-0.4,0.3-7.9,18.6-7.9,19.1c0,0.3,7,3.9,7.7,4C659,12030.8,659.1,12007.5,658.9,12007.7z"></path><path d="M162.6,12038.1c-0.6-1-0.1-2,2.2-4.9c4.9-6.1,29.3-30.7,39.8-40c43.9-39.5,95.7-70,152.9-89.9   c8-2.8,6.7-4.8,16.9,26.2c18.9,57.4,32,99.2,31.4,99.8c-0.3,0.3-5.3,2.3-11.1,4.4c-46,17.3-84.5,42.9-119.7,79.7   c-5.8,6.1-11,11.1-11.4,11.1C263.1,12124.5,163.4,12039.5,162.6,12038.1z M270.2,12086.3c-2.3-2.1-77.6-51.8-77.9-51.4   c-0.2,0.2,69.2,60.3,69.6,60.2C262.1,12095,270.5,12086.6,270.2,12086.3z M287.5,12071.1c0-0.3-78.6-53.1-78.6-53.1   s-10,10.4-10,10.7c0.2,0.6,76.9,52.2,77.7,52.3C276.9,12081,287.5,12071.5,287.5,12071.1z M306.6,12056.4c0-0.2-79.9-53.3-80.7-53   c-0.7,0.2-10.9,9.2-10.9,9.2l79.8,53.3C294.8,12065.9,306.6,12056.6,306.6,12056.4z M326.7,12042.9c0.2-0.6-80.6-54.8-81.7-54.8   c-0.7,0-11.6,8.4-11.6,9c0,0.5,80.2,54,80.9,54C314.6,12051,326.5,12043.2,326.7,12042.9z M349.3,12030.1   c-0.1-0.5-82.9-55.9-84.1-56.2c-1-0.2-12.2,7.4-12.2,8.5c0,0.4,82.3,55.7,82.3,55.7S349.3,12030.3,349.3,12030.1z M373.3,12018.8   c0-0.2-87.6-58.7-87.6-58.7l-13.6,8.6l85.8,57.3C357.8,12026,373.3,12019,373.3,12018.8z M378.1,12010.8   c-0.7-1.8-6.4-19.7-6.4-20.1c0-0.6-62.8-42.4-63.7-42.4c-1.1,0-14.1,6.9-14.1,7.4c0.1,0.5,83.2,56.2,84.1,56.3   C378.3,12012,378.4,12011.4,378.1,12010.8z M360.4,11955.4c0,0-28.7-18.7-29.2-18.5c-2.4,0.5-14.1,6.5-13.9,7.1   c0.2,0.7,49.4,33.7,49.8,33.4C367.1,11977.2,360.4,11955.4,360.4,11955.4z M351.2,11929.1c-1-0.4-9.4,2.9-9.7,3.7   c-0.1,0.5,13,9.5,13.8,9.5C355.7,11942.3,351.7,11929.2,351.2,11929.1z"></path><path d="M591.9,12027c-10.3-3.1-32.3-7.8-45.3-9.7c-14.5-2-38.9-2.9-58.9-2.2c-17.9,0.7-27.5,1.8-45.4,5.3   c-6.7,1.3-12.4,2.2-12.6,2c-0.7-0.6-31.7-129-31.7-129.9c0-1.3,22.8-6.2,42.2-9c21.3-3,38-4.1,62.9-4.1   c45.5,0.1,85.5,5.7,127.3,17.9c9,2.6,11.6,3.6,11.6,4.4c0,0.9-41,127.7-41.8,127.7C599.5,12029.2,595.7,12028.2,591.9,12027z    M587.6,12002c0.3-0.7-143.4-97.4-143.4-97.4s-17,2.9-17,3.2c0.1,0.2,133.6,89.7,133.6,89.7S587.1,12003.4,587.6,12002z    M462.7,11995.1c0,0-20.9-13.8-21-13.6c-0.7,0.7,3.7,16.3,4.5,16.2C446.6,11997.7,462.7,11995.1,462.7,11995.1z M539.4,11994.5   c-1.7-1.7-112.7-75.3-112.8-74.9c-0.3,0.9,3.4,16.1,4.1,16.7c0.4,0.2,84.4,56.6,84.4,56.6S539.7,11994.9,539.4,11994.5z    M497.5,11993.1c0.5-0.1-63.6-43-63.6-42.6c0,1.7,3.8,16.2,4.4,16.8c0.4,0.4,39.4,26.6,39.4,26.6S496.9,11993.1,497.5,11993.1z    M594.6,11979.4c-0.1-0.1-116.2-78-116.2-78l-19.9,1.5c0,0,131.7,88.1,131.9,88.1C590.7,11991,594.8,11979.5,594.6,11979.4z    M601.6,11958.6c0-0.3-85.7-58-85.7-58s-21.6-0.4-20.6,0.7c2.5,2.5,102.1,68.7,102.6,68.2C598.1,11969.1,601.6,11959,601.6,11958.6   z M607.9,11936.3c-0.4-0.4-11.3-7.7-24.4-16.4l-23.7-15.8c0,0-23.1-2.3-23.8-2.2c-1.2,0.2,66.6,46.2,68.3,46.3   C604.7,11948.3,608.3,11936.7,607.9,11936.3z M614.3,11915.3c-1.8-1.1-30.7-7.7-31.3-7.2c-0.1,0.2,27.7,19.1,28.4,19.1   C611.6,11927.3,615.2,11915.8,614.3,11915.3z"></path></g><g xmlns="http://www.w3.org/2000/svg" transform="translate(0.000000,575.000000) scale(0.100000,-0.100000)"><path d="M656.8,5419.3c-6.9,4.1-17.1,4.6-23.6,0.9c-2.6-1.5-45.3-43.5-45.3-43.5l-7.6,7.6c-8.8,8.8-13,10.8-20.4,9.3   c-13.6-2.7-19.4-18.5-10.9-29.2l2.8-3.5L352,5161.2l-0.1-8c-0.1-23.1-7.7-47.9-18.9-62l-3.8-4.7l5.3-5.3l5.4-5.4l6.2,4.7   c7.6,5.6,13,8.4,23.7,12c10.4,3.5,24.1,5.7,35.9,5.9l9.1,0.1l199.7,199.7l3.5-2.8c10.7-8.5,26.5-2.6,29.2,10.9   c1.5,7.2-0.5,11.6-8.6,19.7l-6.8,6.8l43.5,43.5l1.6,5.8c2,6.7,1,13.8-2.4,19.3C671.7,5405.8,660.7,5417,656.8,5419.3z    M504.9,5212.1l-97.9-98.3l-3.6,0.3c-5.9,0.4-26.6-2.9-35.2-5.7c-4.5-1.5-8.4-2.5-8.6-2.2c-0.2,0.2,0.4,2.5,1.4,5.3   c3.3,9.6,6.1,24.7,6.6,36.4l0.3,5.7c0,0,195,194.8,195.4,195.1c0.3,0.3,39.4-38.4,39.4-38.4L504.9,5212.1z"></path></g></g><g id="SvgjsG1241" featurekey="nameRightFeature-0" transform="matrix(1.090908964803411,0,0,1.090908964803411,136.5090925610753,7.32000769181596)" fill="#fff"><path d="M31.24 38.28 c0.16 0.24 0.2 0.56 0.16 0.96 c-0.08 0.48 -0.44 0.8 -0.92 0.8 l-4.4 0 c-0.36 0 -0.64 -0.08 -0.84 -0.24 c-0.16 -0.12 -0.28 -0.32 -0.44 -0.56 l-7.24 -12.84 l-8.44 0 l0 12.24 c0 1.24 -0.76 1.4 -1.12 1.4 l-3.64 0 c-0.36 0 -1.16 -0.16 -1.16 -1.4 l0 -16.8 c0 -1.24 0.8 -1.36 1.16 -1.36 l17.4 0 c1.04 0 1.72 -0.28 2.12 -0.88 c0.44 -0.6 0.64 -1.56 0.64 -2.88 s-0.2 -2.28 -0.64 -2.88 c-0.4 -0.6 -1.08 -0.88 -2.12 -0.88 l-17.4 0 c-0.36 0 -1.16 -0.12 -1.16 -1.36 l0 -3.16 c0 -1.28 0.8 -1.4 1.16 -1.4 l18.44 0 c2.72 0 4.72 0.84 5.92 2.56 c1.08 1.64 1.68 3.96 1.76 7 l0 0.24 c-0.08 3.08 -0.68 5.4 -1.76 7 c-1 1.36 -2.52 2.2 -4.48 2.44 z M68.609 7.039999999999999 c0.36 0 1.16 0.12 1.16 1.36 l0 3.12 c0 1.32 -0.8 1.44 -1.16 1.44 l-10.28 0 l0 25.68 c0 1.24 -0.76 1.36 -1.12 1.36 l-3.68 0 c-0.32 0 -1.12 -0.12 -1.12 -1.36 l0 -25.68 l-10.28 0 c-0.36 0 -1.16 -0.12 -1.16 -1.44 l0 -3.12 c0 -1.24 0.8 -1.36 1.16 -1.36 l26.48 0 z"></path></g></svg>